<?xml version="1.0" encoding="utf-8"?>
<svg width="30px"
  height="30px"
  viewBox="0 0 30 30"
  version="1.1"
  xmlns:xlink="http://www.w3.org/1999/xlink"
  xmlns="http://www.w3.org/2000/svg">
  <desc>Created with Lunacy</desc>
  <g id="search">
    <path d="M6.64863 10.0277L5.60438 13.9261L1.78764 14.0068C0.646992 11.8912 0 9.47062 0 6.89836C0 4.411 0.604922 2.06537 1.67719 0L1.67801 0L5.07598 0.622969L6.56449 4.00055C6.25295 4.90881 6.08314 5.88381 6.08314 6.89836C6.08326 7.99945 6.28272 9.05443 6.64863 10.0277Z"
      transform="translate(0 8.101641)"
      id="Path"
      fill="#FBBB00"
      stroke="none" />
    <path d="M14.4081 0C14.5804 0.907383 14.6702 1.84447 14.6702 2.80219C14.6702 3.87609 14.5573 4.92363 14.3422 5.93408C13.612 9.37254 11.704 12.375 9.06094 14.4997L9.06012 14.4989L4.7802 14.2805L4.17445 10.4992C5.92828 9.47062 7.29891 7.861 8.0209 5.93408L0 5.93408L0 0L8.13791 0L14.4081 0L14.4081 0Z"
      transform="translate(15.32977 12.19781)"
      id="Path"
      fill="#518EF8"
      stroke="none" />
    <path d="M22.6022 8.56729L22.603 8.56811C20.0324 10.6343 16.767 11.8706 13.2124 11.8706C7.5 11.8706 2.53354 8.67774 0 3.9791L4.861 0C6.12773 3.38074 9.389 5.78736 13.2124 5.78736C14.8557 5.78736 16.3954 5.34311 17.7165 4.56756L22.6022 8.56729Z"
      transform="translate(1.787637 18.12943)"
      id="Path"
      fill="#28B446"
      stroke="none" />
    <path d="M22.8973 3.45328L18.0379 7.43156C16.6706 6.57691 15.0544 6.0832 13.3228 6.0832C9.41291 6.0832 6.09064 8.60021 4.88736 12.1022L0.000820313 8.10164L0 8.10164C2.49645 3.28846 7.52555 0 13.3228 0C16.9624 0 20.2995 1.29645 22.8973 3.45328Z"
      transform="translate(1.677187 0)"
      id="Path"
      fill="#F14336"
      stroke="none" />
  </g>
</svg>
